<?xml version="1.0" encoding="UTF-8"?><svg id="Layer_1" xmlns="http://www.w3.org/2000/svg" width="486" height="231" viewBox="0 0 486 231"><defs><style>.cls-1{fill:#fff;}.cls-2{fill:#12302e;}</style></defs><g><path class="cls-1" d="M155.36,23.89c-19.32,0-35.38,7.98-48.18,23.92-12.8,15.95-19.21,36.62-19.21,62,0,29.65,6.74,52.9,20.22,69.75,13.48,16.85,29.65,25.27,48.52,25.27,11.23,0,22.35-3.87,33.36-11.62,11-7.75,18.08-16,21.23-24.76l8.09,4.04c-5.17,12.36-13.31,22.74-24.43,31.17s-26.11,12.63-44.98,12.63c-29.88,0-53.52-9.71-70.92-29.14-17.41-19.43-26.11-42.73-26.11-69.91,0-31.45,10.05-56.77,30.16-75.98,20.1-19.21,44.08-28.81,71.94-28.81,6.51,0,14.04,1.68,22.57,5.05,8.53,3.37,13.48,5.05,14.83,5.05,2.7,0,4.04-2.24,4.04-6.74h7.75l3.37,42.79h-7.41c-1.57-10.11-6.01-18.42-13.31-24.93-7.3-6.51-17.8-9.77-31.5-9.77Z"/><path class="cls-1" d="M242.29,212.91v-7.08c12.13,0,19.21-2.24,21.23-6.73V29.95c-2.02-4.71-9.1-7.07-21.23-7.07v-7.08h77.37c29.81,0,53.79,9.09,71.95,27.25,18.15,18.17,27.23,41.82,27.23,70.97s-8.85,52.91-26.56,71.3c-17.71,18.39-40.57,27.59-68.59,27.59h-81.41ZM293.84,25.92V201.46h29.42c7.21,0,14.26-1.62,21.13-4.88,6.88-3.25,13.47-8.12,19.78-14.63,6.31-6.5,11.39-15.58,15.22-27.24,3.83-11.66,5.75-25.11,5.75-40.35,0-29.15-6.6-51.17-19.78-66.08-13.19-14.91-28.58-22.36-46.16-22.36h-25.36Z"/></g><g><path class="cls-2" d="M37.23,91.79c-4.2,0-7.43,1.75-9.7,5.24-2.27,3.5-3.41,8.21-3.41,14.14,0,6.89,1.22,12.19,3.67,15.88,2.45,3.7,5.69,5.55,9.74,5.55,2.45,0,4.68-.85,6.71-2.55,2.02-1.7,3.41-3.58,4.16-5.66l3.07,.91c-1.15,2.79-2.96,5.13-5.43,7.03-2.47,1.9-5.81,2.85-10,2.85-6.69,0-12.09-2.2-16.18-6.61-4.1-4.41-6.14-9.65-6.14-15.73,0-7.04,2.35-12.74,7.04-17.1,4.69-4.36,10.16-6.54,16.41-6.54,1.45,0,3.25,.38,5.4,1.14,2.15,.76,3.37,1.14,3.67,1.14,.6,0,.9-.51,.9-1.52h1.72l.6,10.72h-1.65c-.3-2.08-1.6-4.08-3.9-6-2.3-1.92-4.52-2.89-6.67-2.89Z"/><path class="cls-2" d="M64.8,116.11c.1,4.41,1.09,8.21,2.96,11.4,1.87,3.19,4.26,4.79,7.16,4.79,4.35,0,7.84-1.67,10.49-5.02l1.8,.91c-1.45,2.43-3.33,4.21-5.66,5.32s-5.38,1.67-9.18,1.67c-1.95,0-3.84-.29-5.68-.87-1.84-.58-3.63-1.55-5.39-2.89-1.75-1.34-3.17-3.33-4.25-5.97-1.08-2.63-1.62-5.77-1.62-9.42,0-4.41,1.54-8.15,4.61-11.21,3.07-3.07,7.06-4.6,11.95-4.6,5.34,0,9.49,1.53,12.44,4.6,2.95,3.07,4.42,6.83,4.42,11.29h-24.05Zm.08-2.28h13.64c-.3-3.62-.91-6.41-1.84-8.38-.92-1.96-2.41-2.95-4.46-2.95-1.8,0-3.41,.93-4.83,2.79-1.42,1.86-2.26,4.71-2.51,8.53Z"/><path class="cls-2" d="M110.85,102.5c-2.36,0-4.37,1.2-6.03,3.61-1.66,2.41-2.49,5.61-2.49,9.61,0,4.51,.9,8.4,2.71,11.67,1.81,3.27,4.17,4.9,7.08,4.9,4.21,0,7.38-1.82,9.54-5.47l2.77,1.37c-1.45,2.43-3.34,4.21-5.67,5.32-2.33,1.11-5.4,1.67-9.2,1.67-1.47,0-2.91-.17-4.33-.49-1.42-.33-2.89-.95-4.41-1.86-1.52-.91-2.84-2.05-3.97-3.42-1.13-1.37-2.06-3.2-2.79-5.51-.74-2.31-1.1-4.93-1.1-7.87,0-4.36,1.62-8.08,4.85-11.17,3.23-3.09,7.33-4.64,12.28-4.64,4.06,0,7.32,.7,9.8,2.09,2.48,1.39,3.72,3.38,3.72,5.97,0,1.27-.31,2.31-.94,3.12-.62,.81-1.56,1.22-2.81,1.22s-2.16-.29-2.88-.87c-.72-.58-1.09-1.35-1.09-2.32,0-1.06,.26-1.85,.79-2.36,.52-.51,1.14-.76,1.84-.76-.65-2.53-3.21-3.8-7.67-3.8Z"/><path class="cls-2" d="M128.49,134.42v-1.6c2.7,0,4.27-.51,4.72-1.53v-25.91c-2.6-.2-4.17-.31-4.72-.31v-1.6c.95,0,3.25-.54,6.89-1.63,3.65-1.09,6.04-1.63,7.19-1.63v31.08c.45,1.02,2.02,1.53,4.72,1.53v1.6h-18.81Zm9.22-39.06c-1.2,0-2.41-.44-3.63-1.33-1.22-.89-1.84-1.94-1.84-3.15,0-1.06,.56-2.05,1.69-2.96,1.12-.91,2.31-1.37,3.56-1.37s2.41,.44,3.63,1.33c1.22,.89,1.84,1.96,1.84,3.23,0,1.06-.56,2.04-1.69,2.93-1.12,.89-2.31,1.33-3.56,1.33Z"/><path class="cls-2" d="M149.39,134.42v-1.6c2.7,0,4.27-.51,4.72-1.53v-39.59c-2.7-.2-4.27-.31-4.72-.31v-1.6c.95,0,3.25-.54,6.89-1.63,3.65-1.09,6.04-1.63,7.19-1.63v44.76c.45,1.02,2.02,1.53,4.72,1.53v1.6h-18.81Z"/><path class="cls-2" d="M171.04,134.42v-1.6c2.7,0,4.27-.51,4.72-1.53v-25.91c-2.6-.2-4.17-.31-4.72-.31v-1.6c.95,0,3.25-.54,6.89-1.63,3.65-1.09,6.04-1.63,7.19-1.63v31.08c.45,1.02,2.02,1.53,4.72,1.53v1.6h-18.81Zm9.22-39.06c-1.2,0-2.41-.44-3.63-1.33-1.22-.89-1.84-1.94-1.84-3.15,0-1.06,.56-2.05,1.69-2.96,1.12-.91,2.31-1.37,3.56-1.37s2.41,.44,3.63,1.33c1.22,.89,1.84,1.96,1.84,3.23,0,1.06-.56,2.04-1.69,2.93-1.12,.89-2.31,1.33-3.56,1.33Z"/><path class="cls-2" d="M202.59,116.11c.1,4.41,1.09,8.21,2.96,11.4,1.87,3.19,4.26,4.79,7.16,4.79,4.35,0,7.84-1.67,10.49-5.02l1.8,.91c-1.45,2.43-3.33,4.21-5.66,5.32s-5.38,1.67-9.18,1.67c-1.95,0-3.84-.29-5.68-.87-1.84-.58-3.63-1.55-5.39-2.89-1.75-1.34-3.17-3.33-4.25-5.97-1.08-2.63-1.62-5.77-1.62-9.42,0-4.41,1.54-8.15,4.61-11.21,3.07-3.07,7.06-4.6,11.95-4.6,5.34,0,9.49,1.53,12.44,4.6,2.95,3.07,4.42,6.83,4.42,11.29h-24.05Zm.08-2.28h13.64c-.3-3.62-.91-6.41-1.84-8.38-.92-1.96-2.41-2.95-4.46-2.95-1.8,0-3.41,.93-4.83,2.79-1.42,1.86-2.26,4.71-2.51,8.53Z"/><path class="cls-2" d="M249.12,134.5v-1.6c2.7,0,4.27-.51,4.72-1.52v-38.15c-.45-1.06-2.02-1.59-4.72-1.59v-1.6h16.95c6.59,0,12.02,2.07,16.29,6.2,4.27,4.14,6.41,9.45,6.41,15.95s-2.09,11.87-6.26,16.05-9.36,6.26-15.55,6.26h-17.82Zm14.09-42.18v39.6h3.91c3.41,0,6.31-1.62,8.7-4.85,2.38-3.24,3.58-8.17,3.58-14.79s-1.26-11.67-3.76-14.98c-2.51-3.31-5.65-4.97-9.41-4.97h-3.01Z"/><path class="cls-2" d="M294.15,134.42v-1.6c2.7,0,4.27-.51,4.72-1.53v-25.91c-2.6-.2-4.17-.31-4.72-.31v-1.6c.95,0,3.25-.54,6.89-1.63,3.65-1.09,6.04-1.63,7.19-1.63v31.08c.45,1.02,2.02,1.53,4.72,1.53v1.6h-18.81Zm9.22-39.06c-1.2,0-2.41-.44-3.63-1.33-1.22-.89-1.84-1.94-1.84-3.15,0-1.06,.56-2.05,1.69-2.96,1.12-.91,2.31-1.37,3.56-1.37s2.41,.44,3.63,1.33c1.22,.89,1.84,1.96,1.84,3.23,0,1.06-.56,2.04-1.69,2.93-1.12,.89-2.31,1.33-3.56,1.33Z"/><path class="cls-2" d="M315.8,134.42v-1.6c2.7,0,4.27-.51,4.72-1.53v-25.91c-2.7-.2-4.27-.31-4.72-.31v-1.6c.95,0,3.25-.54,6.89-1.63,3.65-1.09,6.04-1.63,7.19-1.63v3.19c2.5-2.13,5.24-3.19,8.24-3.19,4.8,0,8.52,.9,11.16,2.7,2.65,1.8,3.97,4.5,3.97,8.09v20.29c.45,1.02,2.02,1.53,4.72,1.53v1.6h-18.81v-1.6c2.7,0,4.27-.51,4.72-1.53v-20.82c0-2.28-.51-4.13-1.54-5.55-1.02-1.42-2.58-2.13-4.68-2.13-3.1,0-5.69,.96-7.79,2.89v25.6c.45,1.02,2.02,1.53,4.72,1.53v1.6h-18.81Z"/><path class="cls-2" d="M374.17,131.84c3.4,0,5.1-1.55,5.1-4.66,0-.85-.6-1.69-1.8-2.52-1.2-.83-2.65-1.65-4.35-2.48-1.7-.83-3.4-1.77-5.1-2.82-1.7-1.05-3.15-2.44-4.35-4.17-1.2-1.73-1.8-3.67-1.8-5.83,0-2.82,1.06-5.04,3.18-6.68,2.12-1.63,4.66-2.45,7.6-2.45,1.7,0,3.45,.38,5.25,1.14,1.8,.76,2.82,1.14,3.07,1.14,.6,0,.9-.51,.9-1.52h1.72l.75,11h-1.65c-.5-2.1-1.79-4.16-3.86-6.17-2.07-2.01-4.06-3.01-5.96-3.01-3.55,0-5.32,1.3-5.32,3.91,0,.9,.97,1.94,2.92,3.12,1.95,1.18,4.07,2.32,6.37,3.42,2.3,1.1,4.42,2.68,6.37,4.74,1.95,2.06,2.92,4.31,2.92,6.77,0,3.21-1.17,5.75-3.52,7.62-2.35,1.87-5.37,2.8-9.07,2.8-1.8,0-3.62-.41-5.47-1.24-1.85-.83-2.87-1.24-3.07-1.24-.6,0-.9,.57-.9,1.72h-1.8l-.75-11.83h1.65c.5,2.01,2.01,4.05,4.53,6.13,2.52,2.08,4.66,3.12,6.41,3.12Z"/><path class="cls-2" d="M400.17,116.11c.1,4.41,1.09,8.21,2.96,11.4,1.87,3.19,4.26,4.79,7.16,4.79,4.35,0,7.84-1.67,10.49-5.02l1.8,.91c-1.45,2.43-3.33,4.21-5.66,5.32s-5.38,1.67-9.18,1.67c-1.95,0-3.84-.29-5.68-.87-1.84-.58-3.63-1.55-5.39-2.89-1.75-1.34-3.17-3.33-4.25-5.97-1.08-2.63-1.62-5.77-1.62-9.42,0-4.41,1.54-8.15,4.61-11.21,3.07-3.07,7.06-4.6,11.95-4.6,5.34,0,9.49,1.53,12.44,4.6,2.95,3.07,4.42,6.83,4.42,11.29h-24.05Zm.08-2.28h13.64c-.3-3.62-.91-6.41-1.84-8.38-.92-1.96-2.41-2.95-4.46-2.95-1.8,0-3.41,.93-4.83,2.79-1.42,1.86-2.26,4.71-2.51,8.53Z"/><path class="cls-2" d="M427.81,134.42v-1.6c2.7,0,4.27-.51,4.72-1.53v-25.91c-2.7-.2-4.27-.31-4.72-.31v-1.6c.95,0,3.25-.54,6.89-1.63,3.65-1.09,6.04-1.63,7.19-1.63v3.19c2.5-2.13,5.24-3.19,8.24-3.19,4.8,0,8.52,.9,11.16,2.7,2.65,1.8,3.97,4.5,3.97,8.09v20.29c.45,1.02,2.02,1.53,4.72,1.53v1.6h-18.81v-1.6c2.7,0,4.27-.51,4.72-1.53v-20.82c0-2.28-.51-4.13-1.54-5.55-1.02-1.42-2.58-2.13-4.68-2.13-3.1,0-5.69,.96-7.79,2.89v25.6c.45,1.02,2.02,1.53,4.72,1.53v1.6h-18.81Z"/></g></svg>